<?xml version="1.0" encoding="utf-8"?>
<!-- Generator: Adobe Illustrator 17.0.0, SVG Export Plug-In . SVG Version: 6.00 Build 0)  -->
<!DOCTYPE svg PUBLIC "-//W3C//DTD SVG 1.1//EN" "http://www.w3.org/Graphics/SVG/1.1/DTD/svg11.dtd">
<svg version="1.1" id="图层_1" xmlns="http://www.w3.org/2000/svg" xmlns:xlink="http://www.w3.org/1999/xlink" x="0px" y="0px"
	 width="178.524px" height="178.524px" viewBox="0 0 178.524 178.524" enable-background="new 0 0 178.524 178.524"
	 xml:space="preserve">
<g>
	<defs>
		<circle id="SVGID_1_" cx="89.262" cy="89.262" r="89.262"/>
	</defs>
	<clipPath id="SVGID_2_">
		<use xlink:href="#SVGID_1_"  overflow="visible"/>
	</clipPath>
	<circle clip-path="url(#SVGID_2_)" fill="#EFAD39" cx="89.262" cy="89.262" r="89.262"/>
	<g clip-path="url(#SVGID_2_)">
		<g>
			<path fill="#663D1C" d="M90.179,27.189c-8.802,0.402-21.415,8.755-16.947,19.016c0.11,0.253,0.487,0.108,0.492-0.133
				c0-0.022,0.001-0.043,0.002-0.065c0.076,0.182,0.142,0.366,0.238,0.546c1.65,3.103,5.46,3.98,8.636,4.473
				c4.954,0.77,10.006,0.773,14.961,0.006c3.298-0.51,8.033-0.854,9.363-4.523c0.008-0.022,0.011-0.046,0.019-0.069
				c0.093-0.095,0.173-0.211,0.214-0.373C109.852,35.352,100.584,26.714,90.179,27.189z M75.827,46.27
				c0.013-0.016,0.023-0.035,0.035-0.051c1.335,0.966,2.691,1.763,4.1,2.418C78.522,48.101,76.915,47.285,75.827,46.27z"/>
			<path fill="#F2E2D5" d="M107.3,130.273c-3.678-5.339-5.845-10.536-5.702-17.132c0.031-1.424-1.189-2.047-2.28-1.874
				c-0.128-0.149-0.275-0.291-0.466-0.413c-5.547-3.53-12.715-2.64-18.636-0.524c-0.48,0.172-0.788,0.57-0.926,1.017
				c-0.704,0.11-1.299,0.713-1.074,1.675c1.811,7.745-0.948,12.891-4.538,19.42c-1.922,3.496-2.568,7.281-1.429,11.147
				c2.618,8.884,11.803,12.963,20.509,12.475c8.419-0.472,16.834-4.677,18.076-13.786
				C111.457,137.703,109.846,133.969,107.3,130.273z"/>
			<path fill="#F0CFB9" d="M122.892,76.723c0.468-4.155,0.586-8.284,0.102-12.078c-2.541-19.907-29.098-17.753-43.66-17.654
				c-8.747,0.06-14.018,4.357-16.366,12.727c-1.607,5.727-2.24,11.762-2.197,17.791c-1.39-0.245-2.857,0.217-3.87,1.301
				c-1.544,1.653-1.605,4.216-1.354,6.325c0.252,2.12,1.054,4.366,2.989,5.507c1.057,0.623,2.286,0.818,3.393,0.53
				c0.05,0.321,0.097,0.644,0.15,0.963c0.033,0.201,0.11,0.366,0.215,0.503c1.097,5.68,3.214,11.076,6.72,15.846
				c9.162,12.464,26.089,15.951,38.24,5.697c6.452-5.444,10.259-13.178,12.405-21.217c0.175-0.654,0.348-1.324,0.519-2.001
				c0.191,0.071,0.409,0.106,0.657,0.092C127.107,90.707,128.267,78.273,122.892,76.723z"/>
			<path fill="#663D1C" d="M131.292,80.113c-6.814-0.001-6.808-8.124-7.264-14.727c0.048-1.318-0.007-2.608-0.415-3.853
				c-0.134-0.764-0.303-1.465-0.531-2.07c-0.317-0.84-0.698-1.638-1.107-2.416c-3.304-9.795-13.497-13.871-22.933-16.016
				c-9.4-2.137-21.978-3.783-28.635,4.989c-0.011,0.014-0.012,0.028-0.02,0.042c-5.607-0.614-8.825,4.151-10.848,8.865
				c-3.058,7.123-4.436,15.781-2.556,23.388c0.003,0.014,0.012,0.023,0.017,0.036c-0.002,0.07,0.046,0.127,0.114,0.151
				c0.195,0.135,0.518,0.055,0.566-0.198c1.23-0.502,2.58-0.466,3.31,0.914c0.642,1.213,0.189,2.585,0.643,3.802
				c0.039,0.105,0.149,0.144,0.24,0.117c0.085,0.038,0.189,0.043,0.302-0.015c7.6-3.905,12.893-11.525,15.045-19.729
				c0.075-0.168,0.16-0.326,0.233-0.495c0.098-0.229,0.1-0.444,0.041-0.625c0.084-0.372,0.172-0.743,0.242-1.117
				c1.408,2.243,3.302,4.267,5.003,6.168c3.658,4.088,7.833,7.739,12.5,10.636c9.332,5.794,20.25,7.926,30.925,5.336
				c2.099-0.032,3.788-1.023,5.477-2.341C131.991,80.679,131.684,80.113,131.292,80.113z"/>
		</g>
		<path fill="#D8362C" d="M86.893,136.108c-0.43-0.574-0.955-0.63-1.63-0.81c-0.74-0.198-1.481-0.401-2.24-0.514
			c-0.867-0.129-1.177,0.979-0.361,1.309c0.663,0.268,1.354,0.46,2.043,0.652c0.607,0.168,1.227,0.479,1.838,0.224
			C86.85,136.842,87.146,136.446,86.893,136.108z"/>
		<g>
			<path fill="#F6F5F5" d="M108.768,133.297c-0.071-0.092-0.152-0.16-0.235-0.218c0.003-0.019,0.013-0.034,0.016-0.053
				c0.19-1.375-1.586-1.908-2.097-0.578c-0.032,0.084-0.093,0.163-0.17,0.239c-1.876,0.415-3.686,0.895-5.491,1.344
				c-1.645,0.169-3.125,0.249-3.585,0.294c-2.582,0.257-5.193,0.31-7.784,0.192c-4.895-0.224-9.614-1.925-14.426-2.214
				c-0.27-0.502-1.054-0.706-1.372-0.069c-9.259,18.522-8.401,57.072,20.22,55.727C121.98,186.639,122.153,150.533,108.768,133.297z
				 M115.163,156.755c0.002-0.001,0.004-0.002,0.006-0.002c0.039,0.472,0.059,0.947,0.08,1.422c-0.129-0.522-0.528-0.822-0.97-0.904
				C114.614,157.214,114.94,157.035,115.163,156.755z M75.43,162.882c-0.072-0.115-0.148-0.227-0.221-0.342
				c0.126-1.07,0.259-2.139,0.407-3.204C75.53,160.515,75.471,161.697,75.43,162.882z M86.028,184.555
				c1.48,0.438,3.003,0.757,4.54,0.93C88.965,185.339,87.454,185.017,86.028,184.555z M114.975,164.648
				c-0.266,2-0.742,3.927-1.402,5.751c-0.127-0.113-0.275-0.199-0.435-0.255c1.173-2.661,1.877-5.511,2.097-8.486
				C115.186,162.649,115.109,163.645,114.975,164.648z"/>
			<path fill="#ECECEB" d="M108.24,129.373c-0.692-1.671-1.29-3.381-2.022-5.035c-0.01-0.022-0.025-0.033-0.037-0.052
				c0.428-0.756-0.8-1.434-1.355-0.682c-3.008,4.073-7.516,6.278-11.8,8.736c-0.086,0.049-0.145,0.116-0.191,0.19
				c-0.082-0.213-0.243-0.399-0.527-0.483c-0.497-0.147-0.97-0.317-1.447-0.485c-0.079-0.145-0.214-0.257-0.411-0.294
				c-0.282-0.053-0.561-0.113-0.84-0.174c-4.432-1.774-8.102-4.411-11.993-7.401c-0.157-0.121-0.351-0.044-0.463,0.096
				c-0.012-0.008-0.023-0.017-0.036-0.025c-0.123-0.081-0.307,0.037-0.295,0.18c-0.459-0.378-1.219-0.352-1.349,0.39
				c-0.324,1.86-1.816,4.69-1.672,6.534c0.114,1.465,1.521,3.075,2.315,4.234c2.268,3.312,5.079,6.612,8.559,8.694
				c0.001,0.007,0.001,0.014,0.002,0.022c0.082,0.664,1.091,0.946,1.27,0.172c0.018-0.077,0.035-0.151,0.052-0.227
				c0.299-0.066,0.42-0.473,0.16-0.695c0.125-0.544,0.25-1.077,0.378-1.599c0.664-1.298,1.779-2.959,1.977-3.227
				c1.112-1.501,2.459-2.736,4.01-3.774c0.104-0.07,0.184-0.159,0.246-0.257c2.775,2.763,4.253,5.745,5.098,9.584
				c0.096,0.435,0.51,0.571,0.867,0.481c0.119,0.03,0.25,0.022,0.374-0.047c5.173-2.865,8.209-8.378,8.957-14.133
				C108.265,129.934,108.369,129.685,108.24,129.373z"/>
			<path fill="#575857" d="M137.765,140.151c-0.175-0.324-0.56-0.333-0.823-0.169c-0.064-0.108-0.156-0.205-0.297-0.262
				c-8.736-3.542-18.111-7.455-27.349-9.396c-0.184-0.039-0.352,0.038-0.469,0.162c-0.274-0.044-0.565,0.07-0.65,0.42
				c-3.124,12.894-8.369,24.483-13.945,36.433c-8.005-11.579-15.859-22.495-20.607-35.889c-0.079-0.225-0.29-0.293-0.467-0.247
				c-0.063-0.214-0.255-0.383-0.51-0.284c-8.842,3.432-18.088,7.264-26.491,11.65c-0.151,0.079-0.223,0.205-0.245,0.341
				c-0.089,0.029-0.166,0.088-0.207,0.186c-3.269,7.712-4.407,16.675-5.514,24.93c-1.276,9.516-1.906,19.182-1.57,28.783
				c0.007,0.203,0.085,0.354,0.189,0.475c3.978,6.899,12.345,10.848,19.604,13.272c9.762,3.26,20.245,4.794,30.503,5.286
				c10.607,0.509,21.279-0.304,31.694-2.375c9.201-1.83,18.743-4.182,26.382-9.823c0.507,0.439,1.502,0.236,1.475-0.625
				C147.825,182.51,147.781,158.69,137.765,140.151z"/>
			<path fill="#3C3C3C" d="M116.567,144.351c-1.986-4.505-4.226-8.88-6.638-13.171c-0.367-0.652-1.373-0.066-1.004,0.587
				c1.852,3.277,3.604,6.6,5.207,10.007c0.493,1.047,5.019,12.829,4.64,12.792c-0.094-0.009-0.159,0.024-0.207,0.074
				c-1.515-0.007-3.065,0.424-4.547,0.689c-1.126,0.202-2.392,0.303-3.511,0.68c-0.298,0.015-0.595,0.076-0.892,0.142
				c-0.456,0.101-0.785,0.195-0.967,0.654c-0.041,0.102-0.018,0.197,0.025,0.282c-0.266,0.115-0.465,0.379-0.339,0.689
				c1.608,3.963,2.721,7.98,3.873,12.082c-0.005,0.008-0.012,0.01-0.016,0.018c-6.264,10.72-11.943,22.009-16.856,33.417
				c0.038-11.993-0.143-24.076-1.274-35.934c-0.045-0.472-0.754-0.493-0.752,0c0.055,11.792,0.523,23.583,0.692,35.385
				c-2.192-5.39-5.249-10.591-7.962-15.668c-3.393-6.35-6.707-13.046-11.035-18.819c0.022-0.035,0.048-0.065,0.063-0.109
				c1.37-3.826,2.565-7.881,3.38-11.863c0.031-0.151,0.001-0.276-0.064-0.372c-0.031-0.225-0.163-0.436-0.413-0.505
				c-3.875-1.077-7.64-2.089-11.34-3.709c1.318-3.355,2.432-6.8,3.606-10.207c1.054-3.058,2.674-6.249,2.766-9.503
				c0.002-0.054-0.066-0.062-0.093-0.025c-1.964,2.624-2.691,6.154-3.78,9.223c-1.272,3.585-2.631,7.159-3.721,10.803
				c-0.148,0.494,0.356,0.744,0.719,0.581c3.504,1.856,7.311,3.367,11.252,3.958c-1.326,3.671-2.401,7.564-3.22,11.368
				c-0.045,0.211,0.032,0.371,0.156,0.47c0.003,0.047,0.015,0.097,0.039,0.148c2.968,6.332,6.852,12.272,10.14,18.447
				c3.268,6.137,5.927,12.777,9.535,18.706c0.028,2.904,0.042,5.809,0.016,8.715c-0.007,0.781,1.206,0.781,1.213,0
				c0.029-3.274,0.055-6.564,0.069-9.859c0.133,0.031,0.276-0.014,0.363-0.184c5.817-11.302,11.637-22.608,17.434-33.919
				c0.118-0.23,0.067-0.449-0.062-0.602c-0.475-4.322-1.877-8.547-3.639-12.505c-0.013-0.028-0.035-0.044-0.051-0.068
				c0.018-0.013,0.037-0.031,0.054-0.053c0.028-0.022,0.056-0.043,0.097-0.06c1.459,0.277,3.034-0.214,4.475-0.482
				c1.698-0.316,3.542-0.488,5.126-1.186c0.12,0.044,0.263,0.037,0.369-0.022c0.172-0.097,0.345-0.194,0.517-0.29
				c0.153-0.086,0.279-0.28,0.264-0.46C119.991,151.159,117.99,147.578,116.567,144.351z"/>
		</g>
	</g>
</g>
</svg>
